<?xml version="1.0" encoding="iso-8859-1"?>
<!-- Generator: Adobe Illustrator 19.0.0, SVG Export Plug-In . SVG Version: 6.00 Build 0)  -->
<svg version="1.1" id="Layer_1" xmlns="http://www.w3.org/2000/svg" xmlns:xlink="http://www.w3.org/1999/xlink" x="0px" y="0px"
	 viewBox="0 0 500 500" style="enable-background:new 0 0 500 500;" xml:space="preserve">
<circle style="fill:#324A5E;" cx="250" cy="250" r="250"/>
<g>
	<polygon style="fill:#FFD05B;" points="406.3,385.4 406.3,225.5 306.3,311.2 	"/>
	<polygon style="fill:#FFD05B;" points="93.8,225.5 93.8,385.4 193.7,311.2 	"/>
	<polygon style="fill:#FFD05B;" points="250,359.5 205.7,321.5 93.8,405.9 93.8,406.3 406.3,406.3 406.3,405.9 294.3,321.5 	"/>
</g>
<polygon style="fill:#F9B54C;" points="306.3,311.2 406.3,225.5 406.3,205 294.3,301 282.4,311.2 250,339 217.6,311.2 205.7,301 
	93.8,205 93.8,225.5 193.7,311.2 93.8,385.4 93.8,405.9 205.7,321.5 250,359.5 294.3,321.5 406.3,405.9 406.3,385.4 "/>
<g>
	<polygon style="fill:#FFD05B;" points="93.8,204.7 93.8,205 134.6,240 134.6,169.7 	"/>
	<polygon style="fill:#FFD05B;" points="282.4,121.5 250,93.8 217.6,121.5 211.7,126.6 288.3,126.6 	"/>
	<polygon style="fill:#FFD05B;" points="406.3,204.7 365.4,169.7 365.4,240 406.3,205 	"/>
</g>
<polygon style="fill:#E6E9EE;" points="288.3,126.6 211.7,126.6 134.6,126.6 134.6,169.7 134.6,240 205.7,301 217.6,311.2 250,339 
	282.4,311.2 294.3,301 365.4,240 365.4,169.7 365.4,126.6 "/>
<path style="fill:#FF7058;" d="M285.7,243.6c2.6,0,5-2.1,7-6.2c2-4.1,3-9.4,3-15.6c0-13.6-4-24.9-11.9-33.8
	c-7.9-8.9-18.6-13.4-32-13.4s-24.6,4.7-33.7,14.1s-13.7,20.6-13.7,33.7c0,13.1,4.3,24,12.9,32.7c8.6,8.7,19.2,13,31.9,13
	c9.9,0,18.6-3.6,26.2-10.7l6,10.3c-3.9,3.4-8.9,6.1-15,8.2s-11.8,3.1-17.2,3.1c-16.4,0-30.1-5.4-41.2-16.2
	c-11-10.8-16.6-24.2-16.6-40.4s5.8-30,17.5-41.4c11.6-11.4,25.6-17.2,42-17.2s30.1,5.5,41.1,16.5s16.5,24.7,16.5,41.1
	c0,10.6-2.2,19.1-6.7,25.6c-4.5,6.4-10.3,9.6-17.6,9.6c-3.7,0-7.1-1.1-10.2-3.3s-5.2-5-6.4-8.4c-5.4,6.9-12.2,10.3-20.5,10.3
	c-8.3,0-15.5-3.1-21.7-9.3c-6.1-6.2-9.2-14-9.2-23.5s2.8-17.5,8.3-24s12.8-9.8,21.9-9.8c3,0,5.9,0.7,8.7,2c2.7,1.3,4.7,2.6,5.9,3.8
	l1.9,1.9v-5.9h18.4v46.2C281.3,241.2,282.8,243.6,285.7,243.6z M263,221.8c0-4.8-1.3-8.8-3.9-12s-6-4.8-10.2-4.8s-7.6,1.6-10.1,4.8
	s-3.8,7.1-3.8,11.8s1.3,8.8,3.8,12.2c2.5,3.5,5.9,5.2,10.2,5.2c4.3,0,7.7-1.7,10.2-5C261.8,230.7,263,226.6,263,221.8z"/>
<g>
</g>
<g>
</g>
<g>
</g>
<g>
</g>
<g>
</g>
<g>
</g>
<g>
</g>
<g>
</g>
<g>
</g>
<g>
</g>
<g>
</g>
<g>
</g>
<g>
</g>
<g>
</g>
<g>
</g>
</svg>
