<?xml version="1.0" encoding="iso-8859-1"?>
<!-- Generator: Adobe Illustrator 19.0.0, SVG Export Plug-In . SVG Version: 6.00 Build 0)  -->
<svg version="1.1" id="Layer_1" xmlns="http://www.w3.org/2000/svg" xmlns:xlink="http://www.w3.org/1999/xlink" x="0px" y="0px"
	 viewBox="0 0 505 505" style="enable-background:new 0 0 505 505;" xml:space="preserve">
<circle style="fill:#90DFAA;" cx="252.5" cy="252.5" r="252.5"/>
<rect x="143" y="170.2" style="fill:#FF7058;" width="219" height="20"/>
<path style="fill:#FFFFFF;" d="M399.2,190.2H105.8c-5.4,0-9.7,4.4-9.7,9.7v125c0,5.4,4.4,9.7,9.7,9.7h293.3c5.4,0,9.7-4.4,9.7-9.7
	v-125C408.9,194.5,404.5,190.2,399.2,190.2z"/>
<path style="fill:#324A5E;" d="M408.9,266.9v-67c0-5.4-4.4-9.7-9.7-9.7H105.8c-5.4,0-9.7,4.4-9.7,9.7v67H408.9z"/>
<rect x="165.3" y="83.5" style="fill:#FFFFFF;" width="174.5" height="106.7"/>
<path style="fill:#324A5E;" d="M350.8,288.2H154.2c-5.2,0-9.4,4.2-9.4,9.4v37h215.4v-37C360.2,292.4,356,288.2,350.8,288.2z"/>
<rect x="159.2" y="303" style="fill:#2B3B4E;" width="186.6" height="31.6"/>
<rect x="165.3" y="314.8" style="fill:#FFFFFF;" width="174.5" height="106.7"/>
<g>
	<rect x="181.2" y="334.6" style="fill:#CED5E0;" width="141.9" height="8.6"/>
	<rect x="181.2" y="363.9" style="fill:#CED5E0;" width="141.9" height="8.6"/>
	<rect x="181.2" y="393.2" style="fill:#CED5E0;" width="141.9" height="8.6"/>
	<circle style="fill:#CED5E0;" cx="379.1" cy="217.5" r="11"/>
</g>
<g>
</g>
<g>
</g>
<g>
</g>
<g>
</g>
<g>
</g>
<g>
</g>
<g>
</g>
<g>
</g>
<g>
</g>
<g>
</g>
<g>
</g>
<g>
</g>
<g>
</g>
<g>
</g>
<g>
</g>
</svg>
